<svg width="16" height="16" viewBox="0 0 16 16" fill="none" xmlns="http://www.w3.org/2000/svg">
<rect x="15.5" y="15.5" width="15" height="15" rx="7.5" transform="rotate(-180 15.5 15.5)" stroke="#DDDDDD"/>
<path d="M11.5333 6.20046C11.6556 6.32268 11.7167 6.47823 11.7167 6.66712C11.7167 6.85601 11.6556 7.01157 11.5333 7.13379L8.46667 10.2005C8.40001 10.2671 8.32779 10.3142 8.25001 10.3418C8.17223 10.3693 8.0889 10.3833 8.00001 10.3838C7.91112 10.3838 7.8249 10.3671 7.74134 10.3338C7.65779 10.3005 7.58845 10.256 7.53334 10.2005L4.46668 7.13379C4.34445 7.01157 4.28334 6.85601 4.28334 6.66712C4.28334 6.47823 4.34445 6.32268 4.46668 6.20046C4.5889 6.07823 4.74445 6.01712 4.93334 6.01712C5.12223 6.01712 5.27779 6.07823 5.40001 6.20046L8.00001 8.80046L10.6 6.20046C10.7222 6.07823 10.8778 6.01712 11.0667 6.01712C11.2556 6.01712 11.4111 6.07823 11.5333 6.20046Z" fill="#DDDDDD"/>
</svg>
