<svg width="16" height="16" viewBox="0 0 16 16" fill="none" xmlns="http://www.w3.org/2000/svg">
<rect x="0.5" y="0.5" width="15" height="15" rx="7.5" stroke="#DDDDDD"/>
<path d="M4.46666 9.79954C4.34444 9.67732 4.28333 9.52177 4.28333 9.33288C4.28333 9.14399 4.34444 8.98843 4.46666 8.86621L7.53333 5.79954C7.59999 5.73288 7.67221 5.68577 7.74999 5.65821C7.82777 5.63066 7.9111 5.61666 7.99999 5.61621C8.08888 5.61621 8.1751 5.63288 8.25866 5.66621C8.34221 5.69954 8.41155 5.74399 8.46666 5.79954L11.5333 8.86621C11.6555 8.98843 11.7167 9.14399 11.7167 9.33288C11.7167 9.52177 11.6555 9.67732 11.5333 9.79954C11.4111 9.92177 11.2555 9.98288 11.0667 9.98288C10.8778 9.98288 10.7222 9.92177 10.6 9.79954L7.99999 7.19954L5.39999 9.79954C5.27777 9.92177 5.12221 9.98288 4.93333 9.98288C4.74444 9.98288 4.58888 9.92177 4.46666 9.79954Z" fill="#DDDDDD"/>
</svg>
